<svg version="1.1" id="Layer_1" xmlns="http://www.w3.org/2000/svg" xmlns:xlink="http://www.w3.org/1999/xlink" x="0px" y="0px"
	 width="100%" viewBox="0 0 500 500" enable-background="new 0 0 500 500" xml:space="preserve">
<path fill="#000000" opacity="1.000000" stroke="none" 
	d="
M231.000000,501.000000 
	C154.000015,501.000000 77.500038,501.000000 1.000041,501.000000 
	C1.000027,334.333405 1.000027,167.666779 1.000014,1.000131 
	C167.666565,1.000087 334.333130,1.000087 500.999756,1.000044 
	C500.999847,167.666519 500.999847,334.333038 500.999939,500.999786 
	C411.166656,501.000000 321.333344,501.000000 231.000000,501.000000 
M246.979279,339.788361 
	C246.992706,339.600830 247.006134,339.413330 247.807571,339.120667 
	C248.860489,339.200165 249.913391,339.279663 250.923721,339.744629 
	C250.923721,339.744629 251.050873,340.111023 251.126389,341.031738 
	C251.126389,349.967590 251.126389,358.903412 251.126389,368.143158 
	C253.308273,367.970306 254.871262,367.846497 256.789154,367.694550 
	C256.789154,363.705322 256.789154,360.103577 256.789154,356.498230 
	C260.561554,356.498230 263.927368,356.498230 267.633545,356.498230 
	C267.633545,360.490479 267.633545,364.113708 267.633545,367.746033 
	C269.565765,367.746033 271.139099,367.746033 272.724274,367.746033 
	C272.724274,358.364594 272.724274,349.268372 272.724274,340.165985 
	C271.330750,340.038635 270.173431,339.932861 269.015900,339.503754 
	C269.015900,339.503754 269.018097,339.180420 269.854584,339.001038 
	C271.329834,338.744415 272.802124,338.469330 274.280762,338.233887 
	C327.471466,329.764313 364.707794,278.958435 356.768097,225.682098 
	C346.843109,159.084396 277.198303,121.093452 216.137939,148.968994 
	C169.470154,170.273987 146.030792,223.612335 163.206024,271.680969 
	C177.071716,310.487152 205.296432,332.731232 245.988876,339.539917 
	C245.988876,339.539917 245.991455,339.914246 245.057571,339.983490 
	C238.102310,339.983490 231.147034,339.983490 223.915878,339.983490 
	C224.035446,341.604370 224.125153,342.820435 224.235184,344.312073 
	C226.988663,344.312073 229.440475,344.312073 232.401703,344.312073 
	C232.401703,352.333038 232.401703,360.069427 232.401703,367.741699 
	C234.494766,367.741699 236.070740,367.741699 237.927887,367.741699 
	C237.927887,359.844391 237.927887,352.231964 237.927887,344.178375 
	C241.114426,344.178375 244.017334,344.178375 247.085999,344.178375 
	C246.983826,342.593811 246.910980,341.464111 246.979279,339.788361 
M200.827621,405.472412 
	C200.827621,408.577515 200.827621,411.682617 200.827621,415.075165 
	C202.932281,414.948730 204.463943,414.856750 206.332657,414.744476 
	C206.332657,408.712372 206.332657,403.186646 206.332657,396.775635 
	C210.083664,402.174042 213.463837,406.673462 216.426620,411.432739 
	C218.360199,414.538788 220.527573,415.974518 224.010986,414.605621 
	C224.010986,405.425995 224.010986,396.344757 224.010986,387.151123 
	C222.301865,387.151123 220.851715,387.151123 218.899673,387.151123 
	C218.899673,392.953644 218.899673,398.642395 218.899673,405.481354 
	C214.887024,399.735504 211.413956,395.126221 208.359634,390.254395 
	C206.480728,387.257446 204.350861,386.218292 200.827621,387.513458 
	C200.827621,393.209351 200.827621,398.845642 200.827621,405.472412 
M192.959641,341.864136 
	C191.425262,341.060455 189.890869,340.256775 187.422882,338.964081 
	C187.422882,344.133820 187.422882,347.872589 187.422882,351.701508 
	C183.656586,351.701508 180.388443,351.701508 176.656616,351.701508 
	C176.656616,347.760376 176.656616,344.013062 176.656616,339.902863 
	C174.600403,340.006409 173.027786,340.085602 171.369171,340.169159 
	C171.369171,349.589630 171.369171,358.667023 171.369171,368.057678 
	C173.199219,367.964447 174.769699,367.884460 176.678253,367.787231 
	C176.678253,363.836700 176.678253,360.225922 176.678253,356.408691 
	C180.433075,356.408691 183.828217,356.408691 187.551987,356.408691 
	C187.551987,360.313232 187.551987,363.939880 187.551987,367.795776 
	C189.447708,367.795776 191.014633,367.795776 192.963654,367.795776 
	C192.963654,359.366425 192.963654,351.081299 192.959641,341.864136 
M281.340668,398.912109 
	C278.728058,398.912109 276.115448,398.912109 273.096130,398.912109 
	C273.096130,394.658264 273.096130,390.904663 273.096130,387.118347 
	C271.239319,387.118347 269.797699,387.118347 268.166321,387.118347 
	C268.166321,396.406586 268.166321,405.514191 268.166321,414.810333 
	C269.858154,414.810333 271.422913,414.810333 273.431976,414.810333 
	C273.431976,410.853302 273.431976,407.106506 273.431976,403.328796 
	C277.158447,403.328796 280.437836,403.328796 284.208313,403.328796 
	C284.208313,407.265015 284.208313,411.013519 284.208313,415.078369 
	C286.297913,414.962433 287.873627,414.875031 289.403748,414.790131 
	C289.403748,405.348816 289.403748,396.285126 289.403748,386.908752 
	C287.485809,387.063110 285.928619,387.188416 284.189972,387.328339 
	C284.189972,390.576965 284.346100,393.408813 284.103058,396.206024 
	C284.020874,397.151886 282.928314,398.009979 281.340668,398.912109 
M310.401245,368.006592 
	C311.634308,367.903809 312.867371,367.801025 314.376648,367.675201 
	C314.376648,364.196564 314.376648,361.083313 314.376648,357.937988 
	C319.823395,355.748962 320.691895,360.104614 322.407288,363.034332 
	C324.189789,366.078705 325.411957,369.969818 330.445770,367.309540 
	C328.392731,363.611938 326.338165,359.911499 324.219849,356.096313 
	C327.958496,353.309021 330.027832,350.110077 328.194244,345.624847 
	C326.405365,341.249084 322.537140,340.312927 318.425781,340.074005 
	C315.343781,339.894897 312.243011,340.038605 309.001404,340.038605 
	C309.001404,349.274414 308.994080,357.912964 309.021912,366.551422 
	C309.023376,367.010162 309.322083,367.467957 310.401245,368.006592 
M298.554474,366.139099 
	C299.788727,364.229095 301.955414,362.381104 302.087311,360.397766 
	C302.533142,353.695038 302.257263,346.944336 302.257263,339.921722 
	C300.415253,340.060944 298.855194,340.178833 297.106140,340.311035 
	C297.106140,346.033478 297.160706,351.351288 297.090485,356.667419 
	C297.023041,361.771149 295.084503,364.032288 291.007782,363.998169 
	C286.952332,363.964233 285.084167,361.703583 285.026154,356.540253 
	C284.964813,351.080536 285.012390,345.619568 285.012390,339.901672 
	C282.935669,340.052551 281.372681,340.166107 279.648621,340.291382 
	C279.648621,345.482513 279.623505,350.303436 279.653595,355.124054 
	C279.726227,366.766479 287.202789,371.443970 298.554474,366.139099 
M221.734039,363.757568 
	C218.920532,356.682098 216.179779,349.575897 213.216553,342.563690 
	C212.762177,341.488464 211.197723,340.089020 210.296494,340.189087 
	C209.061432,340.326141 207.390060,341.512268 206.909317,342.666718 
	C203.477753,350.907043 200.301498,359.253693 197.041000,367.574310 
	C200.679932,368.836182 202.924271,367.908325 203.789078,364.152069 
	C204.841080,359.582611 208.584290,361.863464 211.197006,361.448181 
	C213.589569,361.067841 215.894424,361.223267 216.399780,364.477814 
	C217.036026,368.575531 219.536682,368.842773 222.952438,367.408417 
	C222.604187,366.364746 222.294556,365.436859 221.734039,363.757568 
M352.384979,352.957001 
	C350.992218,349.411987 349.742981,345.799194 348.119690,342.363098 
	C347.629303,341.325134 346.162781,340.301208 345.029602,340.155457 
	C344.123535,340.038971 342.491547,341.038116 342.128876,341.928070 
	C338.660522,350.438812 335.393951,359.031769 332.056580,367.634308 
	C335.605560,368.647156 337.684906,368.023621 338.816071,364.437866 
	C339.230835,363.123138 341.391144,361.817413 342.954132,361.506073 
	C348.075653,360.485748 352.304535,361.447205 352.374908,368.182098 
	C354.509705,368.042877 356.117188,367.938049 358.165405,367.804474 
	C356.276428,362.853394 354.518341,358.245483 352.384979,352.957001 
M326.251312,394.670044 
	C323.712524,401.292816 321.173737,407.915558 318.627594,414.557526 
	C322.182159,415.692596 324.171783,414.988739 325.281342,411.414948 
	C325.688477,410.103638 327.880066,408.880920 329.472565,408.487305 
	C335.053650,407.107727 338.636841,409.330688 339.205017,415.360199 
	C341.242523,415.091339 342.672180,414.902710 344.639618,414.643097 
	C341.838074,407.449738 339.447083,400.572510 336.442444,393.974731 
	C335.309235,391.486298 336.191071,387.003052 331.540894,387.045959 
	C326.915192,387.088654 328.451813,391.792389 326.251312,394.670044 
M195.008560,414.982910 
	C195.497452,414.542328 196.487488,413.912109 196.402878,413.688538 
	C193.182205,405.177826 189.961014,396.661926 186.345154,388.317719 
	C186.092896,387.735626 181.488937,387.888763 181.149567,388.671539 
	C177.453110,397.197754 174.204071,405.917969 170.716492,414.885437 
	C172.888733,414.885437 174.353073,414.885437 175.817459,414.885437 
	C176.182892,414.202393 176.616714,413.657013 176.780563,413.039917 
	C177.552780,410.131683 178.568573,407.919891 182.404007,408.312256 
	C185.934006,408.673370 189.861984,407.441223 190.819351,412.791351 
	C190.984665,413.715179 193.033646,414.301910 195.008560,414.982910 
M157.916458,368.516052 
	C160.953094,368.155090 163.989731,367.794159 167.138824,367.419830 
	C166.378204,363.998260 165.587494,362.774567 162.275940,363.613251 
	C156.130676,365.169586 152.452087,361.994720 151.951004,355.609955 
	C151.229858,346.421234 155.544769,342.876495 165.443329,344.887543 
	C165.901215,343.714752 166.380615,342.486816 166.858932,341.261719 
	C157.322845,337.546326 149.584656,340.553864 146.990585,348.660156 
	C143.976791,358.078033 148.169373,366.223206 157.916458,368.516052 
M302.932190,414.720337 
	C304.502808,414.807220 306.073395,414.894104 308.422516,415.024017 
	C305.194427,403.596649 313.478638,396.242920 317.220734,387.186523 
	C315.170746,387.186523 312.901886,386.575317 312.348358,387.290924 
	C309.769684,390.624664 307.665222,394.325195 305.115295,398.327454 
	C302.893555,394.294342 300.844788,390.575256 298.650574,386.592194 
	C296.954346,387.060455 295.429718,387.481323 293.465363,388.023590 
	C297.773438,396.518250 304.475586,403.774200 302.932190,414.720337 
M246.368118,391.161194 
	C247.229294,392.336243 248.792160,393.486145 248.835342,394.690521 
	C249.076981,401.433258 248.951614,408.189117 248.951614,415.076416 
	C251.037994,414.978119 252.506973,414.908905 254.443298,414.817657 
	C254.443298,406.917206 254.443298,399.187286 254.443298,391.015381 
	C257.836182,391.015381 260.755707,391.015381 263.675201,391.015381 
	C263.878326,390.600494 264.081421,390.185638 264.284546,389.770752 
	C263.104858,388.853058 261.954590,387.189636 260.740601,387.141754 
	C254.125534,386.880768 247.494781,387.017670 240.908432,387.017670 
	C240.510483,391.101654 240.510483,391.101654 246.368118,391.161194 
M164.213028,417.624878 
	C165.135635,415.954224 166.800293,414.307648 166.855484,412.608826 
	C167.130005,404.158234 166.980820,395.693878 166.980820,386.956635 
	C165.000565,387.077240 163.447205,387.171844 161.690125,387.278839 
	C161.690125,394.787537 161.770279,401.939575 161.631836,409.087402 
	C161.598633,410.800903 160.806641,412.493256 160.423492,414.208679 
	C160.162033,415.379395 160.004501,416.573303 159.800491,417.756836 
	C161.042740,417.836456 162.285004,417.916077 164.213028,417.624878 
M236.692398,391.742981 
	C236.627274,390.275940 236.562149,388.808899 236.490967,387.205688 
	C234.639084,387.205688 233.061752,387.205688 231.316864,387.205688 
	C231.316864,396.528748 231.316864,405.610474 231.316864,414.816345 
	C233.126694,414.816345 234.706970,414.816345 236.692444,414.816345 
	C236.692444,407.287354 236.692444,399.992310 236.692398,391.742981 
z"/>
<path fill="#F5F5F5" opacity="1.000000" stroke="none" 
	d="
M250.966309,339.359131 
	C249.913391,339.279663 248.860489,339.200165 247.159058,339.081390 
	C246.334930,339.083282 246.159302,339.124420 245.983673,339.165588 
	C205.296432,332.731232 177.071716,310.487152 163.206024,271.680969 
	C146.030792,223.612335 169.470154,170.273987 216.137939,148.968994 
	C277.198303,121.093452 346.843109,159.084396 356.768097,225.682098 
	C364.707794,278.958435 327.471466,329.764313 274.280762,338.233887 
	C272.802124,338.469330 271.329834,338.744415 268.971008,339.027161 
	C262.380371,339.155212 256.673340,339.257172 250.966309,339.359131 
M228.724121,328.954407 
	C249.777298,335.628571 270.779114,335.220947 291.315338,327.314575 
	C333.487793,311.078339 357.728027,268.875732 349.999939,224.256683 
	C343.819153,188.571289 323.169464,163.620789 289.185883,151.464600 
	C254.323242,138.993988 221.858459,145.776016 194.419083,170.504639 
	C141.493256,218.201889 160.313614,305.785583 228.724121,328.954407 
z"/>
<path fill="#FBFBFB" opacity="1.000000" stroke="none" 
	d="
M200.827621,404.977173 
	C200.827621,398.845642 200.827621,393.209351 200.827621,387.513458 
	C204.350861,386.218292 206.480728,387.257446 208.359634,390.254395 
	C211.413956,395.126221 214.887024,399.735504 218.899673,405.481354 
	C218.899673,398.642395 218.899673,392.953644 218.899673,387.151123 
	C220.851715,387.151123 222.301865,387.151123 224.010986,387.151123 
	C224.010986,396.344757 224.010986,405.425995 224.010986,414.605621 
	C220.527573,415.974518 218.360199,414.538788 216.426620,411.432739 
	C213.463837,406.673462 210.083664,402.174042 206.332657,396.775635 
	C206.332657,403.186646 206.332657,408.712372 206.332657,414.744476 
	C204.463943,414.856750 202.932281,414.948730 200.827621,415.075165 
	C200.827621,411.682617 200.827621,408.577515 200.827621,404.977173 
z"/>
<path fill="#EFEFEF" opacity="1.000000" stroke="none" 
	d="
M192.961639,342.330170 
	C192.963654,351.081299 192.963654,359.366425 192.963654,367.795776 
	C191.014633,367.795776 189.447708,367.795776 187.551987,367.795776 
	C187.551987,363.939880 187.551987,360.313232 187.551987,356.408691 
	C183.828217,356.408691 180.433075,356.408691 176.678253,356.408691 
	C176.678253,360.225922 176.678253,363.836700 176.678253,367.787231 
	C174.769699,367.884460 173.199219,367.964447 171.369171,368.057678 
	C171.369171,358.667023 171.369171,349.589630 171.369171,340.169159 
	C173.027786,340.085602 174.600403,340.006409 176.656616,339.902863 
	C176.656616,344.013062 176.656616,347.760376 176.656616,351.701508 
	C180.388443,351.701508 183.656586,351.701508 187.422882,351.701508 
	C187.422882,347.872589 187.422882,344.133820 187.422882,338.964081 
	C189.890869,340.256775 191.425262,341.060455 192.961639,342.330170 
z"/>
<path fill="#F2F2F2" opacity="1.000000" stroke="none" 
	d="
M281.819092,398.910156 
	C282.928314,398.009979 284.020874,397.151886 284.103058,396.206024 
	C284.346100,393.408813 284.189972,390.576965 284.189972,387.328339 
	C285.928619,387.188416 287.485809,387.063110 289.403748,386.908752 
	C289.403748,396.285126 289.403748,405.348816 289.403748,414.790131 
	C287.873627,414.875031 286.297913,414.962433 284.208313,415.078369 
	C284.208313,411.013519 284.208313,407.265015 284.208313,403.328796 
	C280.437836,403.328796 277.158447,403.328796 273.431976,403.328796 
	C273.431976,407.106506 273.431976,410.853302 273.431976,414.810333 
	C271.422913,414.810333 269.858154,414.810333 268.166321,414.810333 
	C268.166321,405.514191 268.166321,396.406586 268.166321,387.118347 
	C269.797699,387.118347 271.239319,387.118347 273.096130,387.118347 
	C273.096130,390.904663 273.096130,394.658264 273.096130,398.912109 
	C276.115448,398.912109 278.728058,398.912109 281.819092,398.910156 
z"/>
<path fill="#F8F8F8" opacity="1.000000" stroke="none" 
	d="
M309.941833,367.966370 
	C309.322083,367.467957 309.023376,367.010162 309.021912,366.551422 
	C308.994080,357.912964 309.001404,349.274414 309.001404,340.038605 
	C312.243011,340.038605 315.343781,339.894897 318.425781,340.074005 
	C322.537140,340.312927 326.405365,341.249084 328.194244,345.624847 
	C330.027832,350.110077 327.958496,353.309021 324.219849,356.096313 
	C326.338165,359.911499 328.392731,363.611938 330.445770,367.309540 
	C325.411957,369.969818 324.189789,366.078705 322.407288,363.034332 
	C320.691895,360.104614 319.823395,355.748962 314.376648,357.937988 
	C314.376648,361.083313 314.376648,364.196564 314.376648,367.675201 
	C312.867371,367.801025 311.634308,367.903809 309.941833,367.966370 
M315.612488,353.021759 
	C316.600555,353.009460 317.854187,353.377594 318.524353,352.909851 
	C320.188751,351.748230 321.586914,350.205200 323.092010,348.815369 
	C321.614624,347.400208 320.313934,345.680634 318.594421,344.682709 
	C317.542511,344.072235 315.847534,344.569885 313.915436,344.569885 
	C314.240265,347.738281 314.501129,350.282928 315.612488,353.021759 
z"/>
<path fill="#F2F2F2" opacity="1.000000" stroke="none" 
	d="
M298.258545,366.368469 
	C287.202789,371.443970 279.726227,366.766479 279.653595,355.124054 
	C279.623505,350.303436 279.648621,345.482513 279.648621,340.291382 
	C281.372681,340.166107 282.935669,340.052551 285.012390,339.901672 
	C285.012390,345.619568 284.964813,351.080536 285.026154,356.540253 
	C285.084167,361.703583 286.952332,363.964233 291.007782,363.998169 
	C295.084503,364.032288 297.023041,361.771149 297.090485,356.667419 
	C297.160706,351.351288 297.106140,346.033478 297.106140,340.311035 
	C298.855194,340.178833 300.415253,340.060944 302.257263,339.921722 
	C302.257263,346.944336 302.533142,353.695038 302.087311,360.397766 
	C301.955414,362.381104 299.788727,364.229095 298.258545,366.368469 
z"/>
<path fill="#EFEFEF" opacity="1.000000" stroke="none" 
	d="
M269.016144,339.827087 
	C270.173431,339.932861 271.330750,340.038635 272.724274,340.165985 
	C272.724274,349.268372 272.724274,358.364594 272.724274,367.746033 
	C271.139099,367.746033 269.565765,367.746033 267.633545,367.746033 
	C267.633545,364.113708 267.633545,360.490479 267.633545,356.498230 
	C263.927368,356.498230 260.561554,356.498230 256.789154,356.498230 
	C256.789154,360.103577 256.789154,363.705322 256.789154,367.694550 
	C254.871262,367.846497 253.308273,367.970306 251.126389,368.143158 
	C251.126389,358.903412 251.126389,349.967590 251.520370,340.483154 
	C253.365585,339.934570 254.816803,339.934570 256.616028,339.934570 
	C256.616028,343.930695 256.616028,347.704132 256.616028,351.950989 
	C258.580627,351.950989 260.200195,351.950989 261.819794,351.950989 
	C263.598633,351.950989 265.377441,351.950989 267.632446,351.950989 
	C267.632446,349.694122 267.455231,347.883820 267.678040,346.124146 
	C267.946686,344.002655 268.554901,341.924194 269.016144,339.827087 
z"/>
<path fill="#F4F4F4" opacity="1.000000" stroke="none" 
	d="
M221.859497,364.133270 
	C222.294556,365.436859 222.604187,366.364746 222.952438,367.408417 
	C219.536682,368.842773 217.036026,368.575531 216.399780,364.477814 
	C215.894424,361.223267 213.589569,361.067841 211.197006,361.448181 
	C208.584290,361.863464 204.841080,359.582611 203.789078,364.152069 
	C202.924271,367.908325 200.679932,368.836182 197.041000,367.574310 
	C200.301498,359.253693 203.477753,350.907043 206.909317,342.666718 
	C207.390060,341.512268 209.061432,340.326141 210.296494,340.189087 
	C211.197723,340.089020 212.762177,341.488464 213.216553,342.563690 
	C216.179779,349.575897 218.920532,356.682098 221.859497,364.133270 
M208.669159,357.080505 
	C210.118576,357.080505 211.567978,357.080505 213.694061,357.080505 
	C212.410507,353.844330 211.343246,351.153473 210.275986,348.462646 
	C209.776352,348.544189 209.276718,348.625732 208.777100,348.707275 
	C208.444794,351.489624 208.112488,354.271973 208.669159,357.080505 
z"/>
<path fill="#F4F4F4" opacity="1.000000" stroke="none" 
	d="
M352.572632,353.297302 
	C354.518341,358.245483 356.276428,362.853394 358.165405,367.804474 
	C356.117188,367.938049 354.509705,368.042877 352.374908,368.182098 
	C352.304535,361.447205 348.075653,360.485748 342.954132,361.506073 
	C341.391144,361.817413 339.230835,363.123138 338.816071,364.437866 
	C337.684906,368.023621 335.605560,368.647156 332.056580,367.634308 
	C335.393951,359.031769 338.660522,350.438812 342.128876,341.928070 
	C342.491547,341.038116 344.123535,340.038971 345.029602,340.155457 
	C346.162781,340.301208 347.629303,341.325134 348.119690,342.363098 
	C349.742981,345.799194 350.992218,349.411987 352.572632,353.297302 
M348.005035,356.755707 
	C347.149963,353.985016 346.294861,351.214325 345.439758,348.443604 
	C345.085205,348.548126 344.730621,348.652679 344.376038,348.757202 
	C343.438507,351.340637 342.500977,353.924072 341.365204,357.053741 
	C343.680084,357.053741 345.433289,357.053741 348.005035,356.755707 
z"/>
<path fill="#F5F5F5" opacity="1.000000" stroke="none" 
	d="
M326.438843,394.328918 
	C328.451813,391.792389 326.915192,387.088654 331.540894,387.045959 
	C336.191071,387.003052 335.309235,391.486298 336.442444,393.974731 
	C339.447083,400.572510 341.838074,407.449738 344.639618,414.643097 
	C342.672180,414.902710 341.242523,415.091339 339.205017,415.360199 
	C338.636841,409.330688 335.053650,407.107727 329.472565,408.487305 
	C327.880066,408.880920 325.688477,410.103638 325.281342,411.414948 
	C324.171783,414.988739 322.182159,415.692596 318.627594,414.557526 
	C321.173737,407.915558 323.712524,401.292816 326.438843,394.328918 
M332.212006,396.485046 
	C331.768768,396.331635 330.947235,396.020508 330.936127,396.047211 
	C329.888672,398.559906 328.903076,401.098358 327.817230,403.881744 
	C330.532684,403.881744 332.635468,403.881744 335.035431,403.881744 
	C334.138702,401.454315 333.343292,399.301117 332.212006,396.485046 
z"/>
<path fill="#F4F4F4" opacity="1.000000" stroke="none" 
	d="
M194.610535,415.013641 
	C193.033646,414.301910 190.984665,413.715179 190.819351,412.791351 
	C189.861984,407.441223 185.934006,408.673370 182.404007,408.312256 
	C178.568573,407.919891 177.552780,410.131683 176.780563,413.039917 
	C176.616714,413.657013 176.182892,414.202393 175.817459,414.885437 
	C174.353073,414.885437 172.888733,414.885437 170.716492,414.885437 
	C174.204071,405.917969 177.453110,397.197754 181.149567,388.671539 
	C181.488937,387.888763 186.092896,387.735626 186.345154,388.317719 
	C189.961014,396.661926 193.182205,405.177826 196.402878,413.688538 
	C196.487488,413.912109 195.497452,414.542328 194.610535,415.013641 
M181.250381,404.026550 
	C183.142944,404.026550 185.035522,404.026550 187.492065,404.026550 
	C186.097168,400.684998 184.968399,397.980957 183.558929,394.604523 
	C182.403107,397.758820 181.546997,400.054047 180.729172,402.362823 
	C180.571945,402.806671 180.564987,403.303741 181.250381,404.026550 
z"/>
<path fill="#F1F1F1" opacity="1.000000" stroke="none" 
	d="
M157.525742,368.442200 
	C148.169373,366.223206 143.976791,358.078033 146.990585,348.660156 
	C149.584656,340.553864 157.322845,337.546326 166.858932,341.261719 
	C166.380615,342.486816 165.901215,343.714752 165.443329,344.887543 
	C155.544769,342.876495 151.229858,346.421234 151.951004,355.609955 
	C152.452087,361.994720 156.130676,365.169586 162.275940,363.613251 
	C165.587494,362.774567 166.378204,363.998260 167.138824,367.419830 
	C163.989731,367.794159 160.953094,368.155090 157.525742,368.442200 
z"/>
<path fill="#F5F5F5" opacity="1.000000" stroke="none" 
	d="
M302.752991,414.312958 
	C304.475586,403.774200 297.773438,396.518250 293.465363,388.023590 
	C295.429718,387.481323 296.954346,387.060455 298.650574,386.592194 
	C300.844788,390.575256 302.893555,394.294342 305.115295,398.327454 
	C307.665222,394.325195 309.769684,390.624664 312.348358,387.290924 
	C312.901886,386.575317 315.170746,387.186523 317.220734,387.186523 
	C313.478638,396.242920 305.194427,403.596649 308.422516,415.024017 
	C306.073395,414.894104 304.502808,414.807220 302.752991,414.312958 
z"/>
<path fill="#EEEEEE" opacity="1.000000" stroke="none" 
	d="
M246.838135,340.334412 
	C246.910980,341.464111 246.983826,342.593811 247.085999,344.178375 
	C244.017334,344.178375 241.114426,344.178375 237.927887,344.178375 
	C237.927887,352.231964 237.927887,359.844391 237.927887,367.741699 
	C236.070740,367.741699 234.494766,367.741699 232.401703,367.741699 
	C232.401703,360.069427 232.401703,352.333038 232.401703,344.312073 
	C229.440475,344.312073 226.988663,344.312073 224.235184,344.312073 
	C224.125153,342.820435 224.035446,341.604370 223.915878,339.983490 
	C231.147034,339.983490 238.102310,339.983490 245.711151,340.104370 
	C246.364716,340.225250 246.838150,340.334412 246.838135,340.334412 
z"/>
<path fill="#FBFBFB" opacity="1.000000" stroke="none" 
	d="
M245.916870,391.160706 
	C240.510483,391.101654 240.510483,391.101654 240.908432,387.017670 
	C247.494781,387.017670 254.125534,386.880768 260.740601,387.141754 
	C261.954590,387.189636 263.104858,388.853058 264.284546,389.770752 
	C264.081421,390.185638 263.878326,390.600494 263.675201,391.015381 
	C260.755707,391.015381 257.836182,391.015381 254.443298,391.015381 
	C254.443298,399.187286 254.443298,406.917206 254.443298,414.817657 
	C252.506973,414.908905 251.037994,414.978119 248.951614,415.076416 
	C248.951614,408.189117 249.076981,401.433258 248.835342,394.690521 
	C248.792160,393.486145 247.229294,392.336243 245.916870,391.160706 
z"/>
<path fill="#FBFBFB" opacity="1.000000" stroke="none" 
	d="
M163.870148,417.810303 
	C162.285004,417.916077 161.042740,417.836456 159.800507,417.756836 
	C160.004501,416.573303 160.162033,415.379395 160.423492,414.208679 
	C160.806641,412.493256 161.598633,410.800903 161.631836,409.087402 
	C161.770279,401.939575 161.690125,394.787537 161.690125,387.278839 
	C163.447205,387.171844 165.000565,387.077240 166.980820,386.956635 
	C166.980820,395.693878 167.130005,404.158234 166.855484,412.608826 
	C166.800293,414.307648 165.135635,415.954224 163.870148,417.810303 
z"/>
<path fill="#E1E1E1" opacity="1.000000" stroke="none" 
	d="
M236.692413,392.220093 
	C236.692444,399.992310 236.692444,407.287354 236.692444,414.816345 
	C234.706970,414.816345 233.126694,414.816345 231.316864,414.816345 
	C231.316864,405.610474 231.316864,396.528748 231.316864,387.205688 
	C233.061752,387.205688 234.639084,387.205688 236.490967,387.205688 
	C236.562149,388.808899 236.627274,390.275940 236.692413,392.220093 
z"/>
<path fill="#151515" opacity="1.000000" stroke="none" 
	d="
M269.016022,339.665405 
	C268.554901,341.924194 267.946686,344.002655 267.678040,346.124146 
	C267.455231,347.883820 267.632446,349.694122 267.632446,351.950989 
	C265.377441,351.950989 263.598633,351.950989 261.819794,351.950989 
	C260.200195,351.950989 258.580627,351.950989 256.616028,351.950989 
	C256.616028,347.704132 256.616028,343.930695 256.616028,339.934570 
	C254.816803,339.934570 253.365585,339.934570 251.482605,340.022797 
	C251.050873,340.111023 250.923721,339.744629 250.945007,339.551880 
	C256.673340,339.257172 262.380371,339.155212 268.552734,339.116821 
	C269.018097,339.180420 269.015900,339.503754 269.016022,339.665405 
z"/>
<path fill="#151515" opacity="1.000000" stroke="none" 
	d="
M246.908722,340.061401 
	C246.838150,340.334412 246.364716,340.225250 246.178085,340.069763 
	C245.991455,339.914246 245.988876,339.539917 245.986267,339.352753 
	C246.159302,339.124420 246.334930,339.083282 246.765045,339.133972 
	C247.006134,339.413330 246.992706,339.600830 246.908722,340.061401 
z"/>
<path fill="#020202" opacity="1.000000" stroke="none" 
	d="
M228.335327,328.867615 
	C160.313614,305.785583 141.493256,218.201889 194.419083,170.504639 
	C221.858459,145.776016 254.323242,138.993988 289.185883,151.464600 
	C323.169464,163.620789 343.819153,188.571289 349.999939,224.256683 
	C357.728027,268.875732 333.487793,311.078339 291.315338,327.314575 
	C270.779114,335.220947 249.777298,335.628571 228.335327,328.867615 
M176.794800,218.444916 
	C176.344818,221.061798 175.573929,223.669312 175.497131,226.297104 
	C175.011566,242.911575 179.046585,257.912750 193.390671,267.891418 
	C207.479523,277.692505 222.672592,276.394135 237.518372,269.570007 
	C251.045868,263.351807 259.760559,248.201553 258.091370,234.755234 
	C250.399887,236.044998 242.681213,237.154968 235.064117,238.750015 
	C233.225784,239.134964 231.171509,240.789490 230.169800,242.439041 
	C227.128418,247.447510 222.961609,250.063065 217.128525,250.162796 
	C211.455917,250.259750 207.336716,247.384567 205.336334,242.508499 
	C203.552109,238.159302 202.423248,233.313080 202.166779,228.622681 
	C201.841751,222.678650 204.115387,217.371277 210.127090,214.896622 
	C216.228409,212.385040 221.796982,213.507339 226.651199,218.166061 
	C227.589096,219.066193 229.198639,220.005875 230.338135,219.838242 
	C238.618149,218.620209 246.857086,217.123123 255.165161,215.704681 
	C250.308548,199.605972 235.865128,189.125214 218.936203,189.019501 
	C198.048111,188.889084 182.846786,199.257141 176.794800,218.444916 
M264.430481,261.911926 
	C265.133026,262.839996 265.745300,263.856140 266.551819,264.682770 
	C276.671143,275.054718 289.132996,278.784149 303.009979,275.717133 
	C315.331940,272.993835 320.186859,263.005890 322.646484,251.708054 
	C326.423859,234.357666 330.050293,216.974457 333.824921,199.209213 
	C325.314636,197.374908 316.943359,195.570572 308.278290,193.702911 
	C304.540741,210.977478 300.909393,227.839035 297.233246,244.690811 
	C296.437103,248.340363 296.370087,253.053619 290.736816,252.150253 
	C285.538208,251.316620 285.864410,247.089172 286.186737,243.133286 
	C286.210297,242.844238 286.002655,242.536346 285.773254,241.851181 
	C277.772919,240.155045 269.585083,238.419144 261.224915,236.646729 
	C259.168762,245.604660 259.574097,253.673462 264.430481,261.911926 
z"/>
<path fill="#151515" opacity="1.000000" stroke="none" 
	d="
M315.187256,352.924683 
	C314.501129,350.282928 314.240265,347.738281 313.915436,344.569885 
	C315.847534,344.569885 317.542511,344.072235 318.594421,344.682709 
	C320.313934,345.680634 321.614624,347.400208 323.092010,348.815369 
	C321.586914,350.205200 320.188751,351.748230 318.524353,352.909851 
	C317.854187,353.377594 316.600555,353.009460 315.187256,352.924683 
z"/>
<path fill="#151515" opacity="1.000000" stroke="none" 
	d="
M208.224670,357.067413 
	C208.112488,354.271973 208.444794,351.489624 208.777100,348.707275 
	C209.276718,348.625732 209.776352,348.544189 210.275986,348.462646 
	C211.343246,351.153473 212.410507,353.844330 213.694061,357.080505 
	C211.567978,357.080505 210.118576,357.080505 208.224670,357.067413 
z"/>
<path fill="#151515" opacity="1.000000" stroke="none" 
	d="
M347.595764,356.904724 
	C345.433289,357.053741 343.680084,357.053741 341.365204,357.053741 
	C342.500977,353.924072 343.438507,351.340637 344.376038,348.757202 
	C344.730621,348.652679 345.085205,348.548126 345.439758,348.443604 
	C346.294861,351.214325 347.149963,353.985016 347.595764,356.904724 
z"/>
<path fill="#151515" opacity="1.000000" stroke="none" 
	d="
M332.379944,396.816467 
	C333.343292,399.301117 334.138702,401.454315 335.035431,403.881744 
	C332.635468,403.881744 330.532684,403.881744 327.817230,403.881744 
	C328.903076,401.098358 329.888672,398.559906 330.936127,396.047211 
	C330.947235,396.020508 331.768768,396.331635 332.379944,396.816467 
z"/>
<path fill="#151515" opacity="1.000000" stroke="none" 
	d="
M180.869537,403.901428 
	C180.564987,403.303741 180.571945,402.806671 180.729172,402.362823 
	C181.546997,400.054047 182.403107,397.758820 183.558929,394.604523 
	C184.968399,397.980957 186.097168,400.684998 187.492065,404.026550 
	C185.035522,404.026550 183.142944,404.026550 180.869537,403.901428 
z"/>
<path fill="#FCFCFC" opacity="1.000000" stroke="none" 
	d="
M176.879486,218.045685 
	C182.846786,199.257141 198.048111,188.889084 218.936203,189.019501 
	C235.865128,189.125214 250.308548,199.605972 255.165161,215.704681 
	C246.857086,217.123123 238.618149,218.620209 230.338135,219.838242 
	C229.198639,220.005875 227.589096,219.066193 226.651199,218.166061 
	C221.796982,213.507339 216.228409,212.385040 210.127090,214.896622 
	C204.115387,217.371277 201.841751,222.678650 202.166779,228.622681 
	C202.423248,233.313080 203.552109,238.159302 205.336334,242.508499 
	C207.336716,247.384567 211.455917,250.259750 217.128525,250.162796 
	C222.961609,250.063065 227.128418,247.447510 230.169800,242.439041 
	C231.171509,240.789490 233.225784,239.134964 235.064117,238.750015 
	C242.681213,237.154968 250.399887,236.044998 258.091370,234.755234 
	C259.760559,248.201553 251.045868,263.351807 237.518372,269.570007 
	C222.672592,276.394135 207.479523,277.692505 193.390671,267.891418 
	C179.046585,257.912750 175.011566,242.911575 175.497131,226.297104 
	C175.573929,223.669312 176.344818,221.061798 176.879486,218.045685 
z"/>
<path fill="#FCFCFC" opacity="1.000000" stroke="none" 
	d="
M264.238281,261.593201 
	C259.574097,253.673462 259.168762,245.604660 261.224915,236.646729 
	C269.585083,238.419144 277.772919,240.155045 285.773254,241.851181 
	C286.002655,242.536346 286.210297,242.844238 286.186737,243.133286 
	C285.864410,247.089172 285.538208,251.316620 290.736816,252.150253 
	C296.370087,253.053619 296.437103,248.340363 297.233246,244.690811 
	C300.909393,227.839035 304.540741,210.977478 308.278290,193.702911 
	C316.943359,195.570572 325.314636,197.374908 333.824921,199.209213 
	C330.050293,216.974457 326.423859,234.357666 322.646484,251.708054 
	C320.186859,263.005890 315.331940,272.993835 303.009979,275.717133 
	C289.132996,278.784149 276.671143,275.054718 266.551819,264.682770 
	C265.745300,263.856140 265.133026,262.839996 264.238281,261.593201 
z"/>
</svg>