<?xml version="1.0" encoding="utf-8"?>
<!-- Generator: Adobe Illustrator 24.1.1, SVG Export Plug-In . SVG Version: 6.00 Build 0)  -->
<svg version="1.1" id="Layer_1" xmlns="http://www.w3.org/2000/svg" xmlns:xlink="http://www.w3.org/1999/xlink" x="0px" y="0px"
	 viewBox="0 0 512 512" style="enable-background:new 0 0 512 512;" xml:space="preserve">
<g>
	<path d="M109.9,135.5L7.5,237.9C2.7,242.7,0,249.3,0,256c0,6.7,2.7,13.3,7.5,18.1l102.4,102.4c10,10,26.2,10,36.2,0
		c10-10,10-26.2,0-36.2L61.8,256l84.3-84.3c10-10,10-26.2,0-36.2S119.9,125.5,109.9,135.5L109.9,135.5z"/>
	<path d="M365.9,171.7l84.3,84.3l-84.3,84.3c-10,10-10,26.2,0,36.2s26.2,10,36.2,0l102.4-102.4c4.8-4.8,7.5-11.4,7.5-18.1
		c0-6.7-2.7-13.3-7.5-18.1L402.1,135.5c-10-10-26.2-10-36.2,0C355.9,145.5,355.9,161.7,365.9,171.7L365.9,171.7z"/>
	<path d="M282.4,45L180,454.6c-3.4,13.7,4.9,27.6,18.6,31s27.6-4.9,31-18.6L332,57.4c3.4-13.7-4.9-27.6-18.6-31
		C299.7,22.9,285.8,31.3,282.4,45"/>
</g>
</svg>
